<svg xmlns="http://www.w3.org/2000/svg" width="90" height="100" viewBox="0 0 90 100" fill="none">
  <path d="M44.5 0.5L44.4958 72.9217C44.4958 73.1544 44.6365 73.3655 44.8512 73.4557C45.0676 73.5459 45.3148 73.4972 45.4808 73.3312L49.971 68.841C50.1965 68.6155 50.1965 68.2493 49.971 68.0238C49.7455 67.7982 49.3793 67.7982 49.1538 68.0238L45.6503 71.5272L45.6503 0.5L44.5 0.5Z" fill="#222222"/>
  <path d="M40.0003 68.426C40.0003 68.278 40.0562 68.1301 40.1698 68.0182C40.3954 67.7927 40.7616 67.7927 40.9871 68.0182L45.4827 72.5139C45.7082 72.7394 45.7082 73.1056 45.4827 73.3311C45.2572 73.5566 44.891 73.5566 44.6655 73.3311L40.1698 68.8355C40.0562 68.7218 40.0003 68.5739 40.0003 68.426Z" fill="#222222"/>
  <rect x="0.5" y="10.5" width="89" height="89" rx="44.5" stroke="#222222"/>
</svg>