<svg xmlns="http://www.w3.org/2000/svg" width="42" height="40" viewBox="0 0 42 40" fill="none">
  <path d="M41.6308 15.1155C41.3576 14.2703 40.6079 13.67 39.721 13.5901L27.6738 12.4962L22.91 1.34611C22.5588 0.528956 21.7588 0 20.87 0C19.9812 0 19.1812 0.528956 18.83 1.34802L14.0662 12.4962L2.0171 13.5901C1.13179 13.672 0.384053 14.2703 0.109225 15.1155C-0.165602 15.9607 0.0882071 16.8877 0.75792 17.4721L9.86417 25.4583L7.17895 37.2868C6.98246 38.1565 7.32003 39.0555 8.04165 39.5771C8.42953 39.8573 8.88333 40 9.34095 40C9.73552 40 10.1269 39.8936 10.4782 39.6835L20.87 33.4726L31.2581 39.6835C32.0182 40.1408 32.9764 40.099 33.6965 39.5771C34.4184 39.0539 34.7557 38.1545 34.5592 37.2868L31.8739 25.4583L40.9802 17.4737C41.6499 16.8877 41.9056 15.9623 41.6308 15.1155Z" fill="#FFC107"/>
</svg>