<svg xmlns="http://www.w3.org/2000/svg" width="27" height="20" viewBox="0 0 27 20" fill="none">
  <path d="M17.2672 8.81853L11.4335 5.62662C11.0981 5.44309 10.7016 5.44994 10.3729 5.64475C10.0439 5.83976 9.84766 6.18426 9.84766 6.56662V12.8956C9.84766 13.2762 10.0427 13.6201 10.3694 13.8153C10.5401 13.9172 10.7292 13.9684 10.9188 13.9684C11.0925 13.9684 11.2665 13.9255 11.4267 13.8393L17.2605 10.7024C17.6068 10.516 17.823 10.156 17.8246 9.76256C17.826 9.36911 17.6125 9.0075 17.2672 8.81853ZM11.3951 12.0995V7.36924L15.755 9.75491L11.3951 12.0995Z" fill="white"/>
  <path d="M26.2114 4.72038L26.2102 4.70829C26.1878 4.49575 25.9652 2.60526 25.0461 1.6437C23.9838 0.512712 22.7795 0.375317 22.2003 0.30944C22.1524 0.304001 22.1085 0.298965 22.0692 0.293727L22.023 0.288892C18.5322 0.0350538 13.2602 0.000402917 13.2074 0.000201459L13.2028 0L13.1982 0.000201459C13.1454 0.000402917 7.8734 0.0350538 4.3511 0.288892L4.30456 0.293727C4.26709 0.298763 4.22579 0.303397 4.18087 0.308635C3.60832 0.374713 2.4169 0.512309 1.35159 1.68419C0.476248 2.63548 0.223216 4.48548 0.197228 4.69338L0.194206 4.72038C0.186349 4.80882 0 6.91426 0 9.02796V11.0039C0 13.1176 0.186349 15.223 0.194206 15.3117L0.195616 15.325C0.217978 15.5341 0.440388 17.3899 1.35521 18.3519C2.35404 19.445 3.61699 19.5896 4.29631 19.6674C4.40368 19.6797 4.49615 19.6902 4.55921 19.7012L4.62025 19.7097C6.63584 19.9015 12.9554 19.996 13.2233 19.9998L13.2314 20L13.2395 19.9998C13.2922 19.9996 18.564 19.9649 22.0549 19.7111L22.101 19.7063C22.1451 19.7004 22.1947 19.6952 22.2491 19.6896C22.8184 19.6291 24.0034 19.5036 25.054 18.3476C25.9293 17.3961 26.1826 15.5462 26.2083 15.3385L26.2114 15.3115C26.2192 15.2228 26.4058 13.1176 26.4058 11.0039V9.02796C26.4056 6.91426 26.2192 4.80902 26.2114 4.72038ZM24.8582 11.0039C24.8582 12.9602 24.6873 14.975 24.6712 15.16C24.6055 15.6694 24.3386 16.8399 23.9121 17.3035C23.2546 18.0269 22.5791 18.0986 22.0859 18.1508C22.0263 18.1571 21.9711 18.1631 21.9211 18.1693C18.5447 18.4135 13.4717 18.451 13.238 18.4524C12.9759 18.4486 6.74886 18.3533 4.79471 18.1718C4.69459 18.1554 4.58641 18.143 4.47238 18.1301C3.89399 18.0638 3.10226 17.9731 2.49345 17.3035L2.47915 17.2882C2.06012 16.8516 1.80084 15.7571 1.73496 15.166C1.72267 15.0262 1.5474 12.9876 1.5474 11.0039V9.02796C1.5474 7.07381 1.71784 5.06124 1.73436 4.87248C1.81272 4.27233 2.08469 3.17277 2.49345 2.72835C3.17116 1.98296 3.88573 1.90036 4.35835 1.84576C4.40348 1.84053 4.44559 1.83569 4.48447 1.83065C7.91007 1.58528 13.0195 1.54881 13.2028 1.5474C13.3861 1.54861 18.4937 1.58528 21.8889 1.83065C21.9306 1.83589 21.9761 1.84113 22.0251 1.84677C22.5112 1.90217 23.2459 1.98598 23.9202 2.70519L23.9264 2.71183C24.3455 3.14839 24.6047 4.26206 24.6706 4.86502C24.6823 4.99698 24.8582 7.03997 24.8582 9.02796V11.0039Z" fill="white"/>
</svg>